<svg width="532" height="532" xmlns="http://www.w3.org/2000/svg" xmlns:xlink="http://www.w3.org/1999/xlink" xml:space="preserve" overflow="hidden"><g transform="translate(-60 0)"><g><g><g><g><path d="M567.729 219.591 326.533 133.303 85.3375 219.591 132.906 236.289 132.906 332.428C132.906 335.483 135.383 337.959 138.438 337.959 141.492 337.959 143.969 335.483 143.969 332.428L143.969 240.167 182.898 253.829 182.898 333.479C182.898 365.892 248.675 393.272 326.533 393.272 404.391 393.272 470.174 365.892 470.174 333.49L470.174 253.829ZM326.533 145.057 534.475 219.447C534.558 219.474 534.558 219.519 534.475 219.546L326.533 292.504 118.614 219.546C118.531 219.519 118.531 219.474 118.614 219.447ZM459.112 333.49C459.112 356.019 401.2 382.209 326.533 382.209 251.867 382.209 193.96 356.019 193.96 333.49L193.96 257.712 326.533 304.219 459.112 257.701Z" fill="#000000" fill-rule="nonzero" fill-opacity="1"/></g></g></g></g></g></svg>