<svg width="404" height="404" xmlns="http://www.w3.org/2000/svg" xmlns:xlink="http://www.w3.org/1999/xlink" xml:space="preserve" overflow="hidden"><g transform="translate(-732 -40)"><g><g><g><g><path d="M923.467 327.046C923.467 337.572 914.934 346.105 904.408 346.105 893.883 346.105 885.35 337.572 885.35 327.046 885.35 316.52 893.883 307.987 904.408 307.987 914.934 307.987 923.467 316.52 923.467 327.046Z" fill="#000000" fill-rule="nonzero" fill-opacity="1"/><path d="M941.896 389.427 941.896 370.369C941.834 367.399 940.448 364.612 938.118 362.77 932.641 358.549 926.375 355.466 919.689 353.703 914.642 352.154 909.393 351.361 904.115 351.352 898.841 351.433 893.603 352.224 888.54 353.703 881.929 355.66 875.697 358.726 870.111 362.77 867.781 364.612 866.395 367.399 866.333 370.369L866.333 389.427Z" fill="#000000" fill-rule="nonzero" fill-opacity="1"/><path d="M1006.84 327.046C1006.84 337.572 998.305 346.105 987.779 346.105 977.253 346.105 968.721 337.572 968.721 327.046 968.721 316.52 977.253 307.987 987.779 307.987 998.305 307.987 1006.84 316.52 1006.84 327.046Z" fill="#000000" fill-rule="nonzero" fill-opacity="1"/><path d="M1025.85 389.427 1025.85 370.369C1025.79 367.399 1024.41 364.612 1022.08 362.77 1016.6 358.549 1010.33 355.466 1003.65 353.703 998.6 352.154 993.352 351.361 988.073 351.352 982.799 351.433 977.561 352.224 972.499 353.703 965.887 355.66 959.655 358.726 954.07 362.77 951.739 364.612 950.354 367.399 950.292 370.369L950.292 389.427Z" fill="#000000" fill-rule="nonzero" fill-opacity="1"/><path d="M1090.8 327.046C1090.8 337.572 1082.26 346.105 1071.74 346.105 1061.21 346.105 1052.68 337.572 1052.68 327.046 1052.68 316.52 1061.21 307.987 1071.74 307.987 1082.26 307.987 1090.8 316.52 1090.8 327.046Z" fill="#000000" fill-rule="nonzero" fill-opacity="1"/><path d="M1109.81 389.427 1109.81 370.369C1109.75 367.399 1108.36 364.612 1106.03 362.77 1100.56 358.549 1094.29 355.466 1087.61 353.703 1082.56 352.154 1077.31 351.361 1072.03 351.352 1066.76 351.433 1061.52 352.224 1056.46 353.703 1049.85 355.66 1043.61 358.726 1038.03 362.77 1035.7 364.612 1034.31 367.399 1034.25 370.369L1034.25 389.427Z" fill="#000000" fill-rule="nonzero" fill-opacity="1"/><path d="M847.107 150.817C847.107 164.589 835.943 175.753 822.171 175.753 808.4 175.753 797.236 164.589 797.236 150.817 797.236 137.046 808.4 125.882 822.171 125.882 835.943 125.882 847.107 137.046 847.107 150.817Z" fill="#000000" fill-rule="nonzero" fill-opacity="1"/><path d="M969.224 141.204C966.756 138.772 962.793 138.772 960.325 141.204L906.088 195.441C901.753 194.218 897.095 195.402 893.872 198.548 892.99 199.429 877.332 225.037 877.332 225.037L872.63 205.013C872.008 202.431 870.72 200.057 868.894 198.128 861.157 191.874 852.252 187.221 842.699 184.443 835.945 182.998 829.075 182.169 822.171 181.966 815.206 182.074 808.287 183.118 801.601 185.072 791.962 187.6 783.02 192.279 775.448 198.758 773.606 200.675 772.316 203.053 771.712 205.642 771.712 205.642 753.619 281.625 753.619 282.884 753.619 289.839 759.258 295.478 766.213 295.478 771.787 295.335 776.603 291.543 778.051 286.158L791.149 231.963 791.149 406.219 815.958 406.219 815.958 294.092 828.552 294.092 828.552 406.219 853.32 406.219 853.32 231.166 857.938 250.896C858.258 252.26 859.164 253.412 860.414 254.044 865.241 257.749 871.122 259.822 877.206 259.963 881.167 260.518 885.092 258.735 887.281 255.388L912.888 213.408C914.525 210.828 915.139 207.729 914.609 204.719L969.182 150.146C971.654 147.685 971.673 143.689 969.224 141.204Z" fill="#000000" fill-rule="nonzero" fill-opacity="1"/><path d="M1055.24 82.9792 849.542 82.9792C840.268 82.9792 832.75 90.4972 832.75 99.7708L832.75 114.883C839.169 116.631 844.979 120.117 849.542 124.958L849.542 99.7708 1055.24 99.7708 1055.24 238.302 911.965 238.302 901.722 255.094 1055.24 255.094C1064.51 255.094 1072.03 247.576 1072.03 238.302L1072.03 99.7708C1072.03 90.4972 1064.51 82.9792 1055.24 82.9792Z" fill="#000000" fill-rule="nonzero" fill-opacity="1"/></g></g></g></g></g></svg>