<svg width="448" height="448" xmlns="http://www.w3.org/2000/svg" xmlns:xlink="http://www.w3.org/1999/xlink" xml:space="preserve" overflow="hidden"><g transform="translate(-192 -306)"><g><g><g><g><path d="M351.69 546.438 319.678 546.438 319.678 514.669C322.157 516.234 325.029 517.063 327.961 517.062L357.552 517.062C365.622 517.158 372.487 511.199 373.527 503.196 374.402 494.713 368.234 487.128 359.752 486.254 359.223 486.2 358.693 486.172 358.162 486.172L333.018 486.172 319.934 476.571C317.474 474.699 315.112 472.702 312.857 470.588L311.041 468.954C305.539 464.048 298.214 461.71 290.888 462.519 277.376 464.164 267.29 475.752 267.523 489.362L267.523 551.22C267.536 565.704 279.273 577.443 293.757 577.458L336.254 577.458 336.254 627.08C336.152 635.152 342.11 642.021 350.116 643.06 350.633 643.111 351.15 643.135 351.662 643.135 360.184 643.163 367.115 636.277 367.144 627.755 367.144 627.735 367.144 627.715 367.144 627.695L367.144 561.883C367.134 553.354 360.219 546.443 351.69 546.438ZM308.941 495.15C306.87 493.623 303.955 494.064 302.429 496.135 300.903 498.205 301.343 501.12 303.414 502.646L310.398 507.768 310.398 555.728 351.722 555.728C355.108 555.743 357.841 558.498 357.831 561.883L357.831 627.695C357.835 631.079 355.095 633.825 351.711 633.829 351.49 633.829 351.271 633.818 351.052 633.794 347.788 633.269 345.435 630.383 345.576 627.08L345.576 568.146 293.757 568.146C284.415 568.133 276.846 560.562 276.836 551.22L276.836 489.26C276.654 480.409 283.185 472.849 291.969 471.743 296.651 471.232 301.33 472.736 304.838 475.878L306.612 477.47C309.103 479.798 311.711 481.997 314.426 484.059L329.978 495.462 358.167 495.462C361.553 495.463 364.298 498.21 364.296 501.596 364.296 501.813 364.285 502.03 364.262 502.246 363.738 505.509 360.855 507.865 357.552 507.726L327.971 507.726C326.662 507.723 325.388 507.311 324.325 506.548Z" fill="#000000" fill-rule="nonzero" fill-opacity="1"/><path d="M290.805 456.931C303.662 456.931 314.086 446.508 314.086 433.65 314.086 420.792 303.662 410.369 290.805 410.369 277.947 410.369 267.523 420.792 267.523 433.65 267.523 446.508 277.947 456.931 290.805 456.931ZM290.805 419.681C298.519 419.681 304.773 425.935 304.773 433.65 304.773 441.365 298.519 447.619 290.805 447.619 283.09 447.619 276.836 441.365 276.836 433.65 276.836 425.935 283.09 419.681 290.805 419.681Z" fill="#000000" fill-rule="nonzero" fill-opacity="1"/><path d="M323.375 591.031 290.781 591.031C270.218 591.008 253.555 574.344 253.531 553.781L253.531 493.25C253.531 490.678 251.447 488.594 248.875 488.594 246.303 488.594 244.219 490.678 244.219 493.25L244.219 553.781C244.243 575.901 259.802 594.96 281.469 599.412L281.469 637.594 258.188 637.594 258.188 646.906 314.062 646.906 314.062 637.594 290.781 637.594 290.781 600.344 323.375 600.344C325.947 600.344 328.031 598.259 328.031 595.688 328.031 593.116 325.947 591.031 323.375 591.031Z" fill="#000000" fill-rule="nonzero" fill-opacity="1"/><path d="M421.156 535.156 495.656 535.156C498.228 535.156 500.312 533.072 500.312 530.5 500.312 527.928 498.228 525.844 495.656 525.844L337.344 525.844C334.772 525.844 332.688 527.928 332.688 530.5 332.688 533.072 334.772 535.156 337.344 535.156L411.844 535.156 411.844 637.594 379.25 637.594 379.25 646.906 453.75 646.906 453.75 637.594 421.156 637.594Z" fill="#000000" fill-rule="nonzero" fill-opacity="1"/><path d="M565.5 551.22 565.5 489.423C565.756 475.761 555.631 464.123 542.065 462.486 534.761 461.703 527.466 464.042 521.978 468.926L520.162 470.565C517.906 472.678 515.544 474.675 513.085 476.548L499.996 486.149 474.852 486.149C466.32 486.151 459.404 493.07 459.406 501.602 459.406 502.127 459.433 502.651 459.486 503.172 460.529 511.177 467.396 517.135 475.467 517.039L505.062 517.039C507.993 517.048 510.867 516.226 513.35 514.669L513.35 546.462 481.348 546.462C472.821 546.472 465.911 553.38 465.898 561.906L465.898 627.695C465.895 636.219 472.804 643.132 481.329 643.135 481.344 643.135 481.36 643.135 481.376 643.135 481.888 643.135 482.4 643.135 482.921 643.06 490.926 642.02 496.884 635.151 496.783 627.08L496.783 577.458 539.281 577.458C553.759 577.435 565.487 565.698 565.5 551.22ZM508.694 506.548C507.632 507.31 506.359 507.722 505.053 507.726L475.485 507.726C472.185 507.857 469.305 505.506 468.771 502.246 468.411 498.878 470.849 495.857 474.217 495.497 474.434 495.473 474.652 495.462 474.871 495.462L503.06 495.462 518.612 484.059C521.326 481.999 523.933 479.799 526.42 477.47L528.199 475.873C531.689 472.747 536.339 471.243 540.999 471.733 549.83 472.833 556.394 480.442 556.188 489.339L556.188 551.22C556.177 560.562 548.609 568.133 539.267 568.146L487.471 568.146 487.471 627.08C487.612 630.384 485.256 633.27 481.99 633.794 480.254 633.994 478.517 633.428 477.231 632.244 475.939 631.085 475.204 629.43 475.211 627.695L475.211 561.883C475.216 558.497 477.961 555.754 481.348 555.751L522.663 555.751 522.663 507.791 529.647 502.67C531.717 501.142 532.157 498.226 530.629 496.156 529.102 494.085 526.185 493.645 524.115 495.173Z" fill="#000000" fill-rule="nonzero" fill-opacity="1"/><path d="M542.219 456.931C555.077 456.931 565.5 446.508 565.5 433.65 565.5 420.792 555.077 410.369 542.219 410.369 529.361 410.369 518.938 420.792 518.938 433.65 518.938 446.508 529.361 456.931 542.219 456.931ZM542.219 419.681C549.934 419.681 556.188 425.935 556.188 433.65 556.188 441.365 549.934 447.619 542.219 447.619 534.504 447.619 528.25 441.365 528.25 433.65 528.25 425.935 534.504 419.681 542.219 419.681Z" fill="#000000" fill-rule="nonzero" fill-opacity="1"/><path d="M584.125 488.594C581.553 488.594 579.469 490.678 579.469 493.25L579.469 553.781C579.445 574.344 562.782 591.008 542.219 591.031L509.625 591.031C507.053 591.031 504.969 593.116 504.969 595.688 504.969 598.259 507.053 600.344 509.625 600.344L542.219 600.344 542.219 637.594 518.938 637.594 518.938 646.906 574.812 646.906 574.812 637.594 551.531 637.594 551.531 599.412C573.197 594.959 588.755 575.9 588.781 553.781L588.781 493.25C588.781 490.678 586.697 488.594 584.125 488.594Z" fill="#000000" fill-rule="nonzero" fill-opacity="1"/></g></g></g></g></g></svg>